<svg xmlns="http://www.w3.org/2000/svg" viewBox="0 0 24 24" id="pinterest"><path d="M7.5 24.002a.503.503 0 0 1-.354-.146c-1.517-1.517-1.152-3.376-1.136-3.455l1.365-6.142-.394 1.38a.501.501 0 0 1-.481.363c-1.809 0-4.5-4.187-4.5-7 0-2.503 1.886-9 10.5-9 7.515 0 9.5 5.887 9.5 9 0 4.152-1.964 9-7.5 9a5.568 5.568 0 0 1-2.758-.735c-.434 1.127-1.376 3.549-1.788 4.444-.591 1.287-2.14 2.187-2.205 2.225a.507.507 0 0 1-.249.066zm3.5-17c-2.43 0-2.5 2.244-2.5 2.5 0 .612.331 1.507.458 1.8a.505.505 0 0 1 .03.309l-2 9c-.009.044-.219 1.184.6 2.238.428-.299 1.145-.876 1.458-1.555.518-1.128 1.972-4.931 1.987-4.97a.5.5 0 0 1 .792-.201c.009.007 1.063.879 2.675.879 6.187 0 6.5-6.664 6.5-8 0-2.971-1.79-8-8.5-8-7.793 0-9.5 5.775-9.5 8 0 2.388 2.037 5.313 3.152 5.896l.785-2.745C6.583 11.764 6 10.909 6 9.502c0-3.939 3.27-6 6.5-6 3.397 0 5.5 2.595 5.5 5 0 2.085-1.893 6.5-4 6.5-1.978 0-2.5-1.635-2.5-2.5 0-.133.053-.26.146-.354 1.001-1 1.354-3.241 1.354-3.646.001-.312.002-.727-.302-1.031-.305-.307-.893-.469-1.698-.469zm1.512 5.684c.048.41.292 1.316 1.488 1.316 1.122 0 3-3.444 3-5.5 0-1.924-1.721-4-4.5-4-2.649 0-5.5 1.564-5.5 5 0 1.454.771 2.078.804 2.104a.501.501 0 0 1 .128.148l.046-.207c-.144-.362-.478-1.285-.478-2.045 0-1.3.737-3.5 3.5-3.5 1.092 0 1.902.256 2.406.762.597.599.595 1.345.594 1.703 0 .605-.361 2.922-1.488 4.219z"></path></svg>